PathFileType	4	(X/Y/Z)	Walk1_0-155.trc
DataRate	CameraRate	NumFrames	NumMarkers	Units	OrigDataRate	OrigDataStartFrame	OrigNumFrames
30	30	4	22	m	30	0	155
Frame#	Time	Hip			RHip			RKnee			RAnkle			RBigToe			RSmallToe			RHeel			LHip			LKnee			LAnkle			LBigToe			LSmallToe			LHeel			Neck			Head			Nose			RShoulder			RElbow			RWrist			LShoulder			LElbow			LWrist		
		X1	Y1	Z1	X2	Y2	Z2	X3	Y3	Z3	X4	Y4	Z4	X5	Y5	Z5	X6	Y6	Z6	X7	Y7	Z7	X8	Y8	Z8	X9	Y9	Z9	X10	Y10	Z10	X11	Y11	Z11	X12	Y12	Z12	X13	Y13	Z13	X14	Y14	Z14	X15	Y15	Z15	X16	Y16	Z16	X17	Y17	Z17	X18	Y18	Z18	X19	Y19	Z19	X20	Y20	Z20	X21	Y21	Z21	X22	Y22	Z22
1	0.0333333333333333	-2.583925768334693	0.8287778707931811	0.39034204975605313	-2.567899048610824	0.7966454851782615	0.4794776487781941	-2.601752130808436	0.44570050005493583	0.5026367358872559	-2.5801063700943474	0.07941083683675612	0.507530820665186	-2.391005547774077	-0.007316926314410292	0.540106577726128	-2.4425901290182526	-0.007116743760055102	0.6063251617441807	-2.605914119722165	0.007525043939880346	0.5041497957234304	-2.5792082757562764	0.7967770868349932	0.308732764858348	-2.5522473487861808	0.4564348204917622	0.29260886944649706	-2.5748990049540192	0.08097806681985091	0.2839599931966135	-2.385927349139846	-0.004578727331555635	0.27378954350702167	-2.4288532330513224	-0.011401364061022807	0.20942953972046358	-2.619626130708032	-0.010200170528881222	0.2927767716697318	-2.56841977404092	1.5230518076259176	0.35387274126539436	-2.522480412572171	1.7732939089974677	0.25059952476697406	-2.45220687873504	1.6599928051211206	0.3736966445825067	-2.55407326073548	1.3866290244549164	0.578935525685145	-2.560504979041528	1.097583292012423	0.626694239109292	-2.487945237516533	0.8542206994917758	0.6134834253943693	-2.5733436740593345	1.3986069044920786	0.2106434219811197	-2.5522644619304744	1.0995477889622027	0.1533895744646148	-2.487937665689572	0.8561863475357945	0.1667321735490988
2	0.0666666666666666	-2.5835340518279883	0.8281741822871742	0.3892702727778376	-2.568725776040021	0.7970902267626447	0.4795433051440161	-2.602683535561485	0.44466371565568197	0.5030385290590603	-2.5795076221494813	0.08027319216598446	0.5098068671999082	-2.3898691284574185	-0.005983884110559939	0.5420663146102982	-2.4417963316215414	-0.006734367591199883	0.6064772916320031	-2.6211216077099895	0.0024905421245338937	0.5025449006129827	-2.5787391726092705	0.796928670279878	0.30614096847499184	-2.550656586746435	0.45625628187306944	0.2911740906779041	-2.5747295556859853	0.07910488385689826	0.283002773388957	-2.385820758789956	-0.005371603782170146	0.27409672793755735	-2.4277317991437157	-0.010876989507838502	0.20971825518293022	-2.6198650198447306	-0.011435558185504572	0.2927607558106912	-2.564255905219653	1.520264930962138	0.35664200688261843	-2.525506243930116	1.7761730287760285	0.2839703497504333	-2.437293084554738	1.6577828412236972	0.36835945889007504	-2.568596596575335	1.3919539335007391	0.5657368346572965	-2.5593156183832484	1.0956356972650836	0.6251077729421054	-2.4866022711002733	0.8533282721115808	0.6121268297127835	-2.572620606173662	1.3978230095041433	0.20763582977563133	-2.5511426294002013	1.0978380249121598	0.15217371663863916	-2.4865221750897555	0.8551851720737779	0.1658977082625528
3	0.1	-2.5831092801896243	0.8276817322580409	0.388049744074143	-2.5693800034022174	0.7976119195035651	0.4794158211009195	-2.603589019033738	0.4437480775929328	0.5032759164488805	-2.5789870901976952	0.08119325487665215	0.5117583540243034	-2.3891835517151487	-0.004948266567551567	0.5437757682367029	-2.441634398954048	-0.006326845943954542	0.6065691557786707	-2.6372377089737884	-0.003237669857342262	0.5008133516368102	-2.5782798267867784	0.7969748336024038	0.30372490565336735	-2.548738275642957	0.45619279822694386	0.2897778499985347	-2.5745478312529646	0.07751923646505864	0.2823077292245267	-2.385727146204189	-0.005886074511199289	0.2744189524870809	-2.4267190250687602	-0.010469949436162642	0.20999588041705192	-2.6201244277506066	-0.012465287952294584	0.29273115755309154	-2.5612804506399787	1.5184655810676677	0.35723954455736934	-2.5276810272947285	1.7784313517735968	0.310161485440403	-2.4251424823455996	1.6560024898491092	0.36347719157951947	-2.580946653310792	1.396784933529959	0.5532806919200531	-2.557998150673569	1.0940715593140948	0.623494523767505	-2.485409852169405	0.8526024073011105	0.611012980503496	-2.5719048118088073	1.39720953647588	0.20459895233318723	-2.550173798263616	1.0963196090241352	0.15062792055352356	-2.48523168963344	0.8541897064115666	0.16487040521721466
4	0.1333333333333333	-2.5825770680003193	0.8273393674320445	0.3865655280585164	-2.569655588641751	0.7981980280422475	0.4789257411881421	-2.60430060078566	0.44298571017595	0.5031658339459473	-2.5787182062576917	0.08208110280097264	0.513098612217502	-2.389316275842159	-0.00439736084397181	0.5450826109997978	-2.4427403265761307	-0.005964334553138447	0.6064895020232176	-2.653272539636006	-0.009369882932548496	0.4991089987964339	-2.577838649066994	0.7968966329839083	0.3015061283815942	-2.5464376886984335	0.4562918116684662	0.2884183681680448	-2.5743566905290547	0.07636544173386091	0.28198337593303907	-2.385541173056665	-0.00602859177869126	0.27468422349341065	-2.4258353913937034	-0.010176126561257338	0.21029431806100293	-2.620448173806204	-0.01316487585706468	0.2926743984693536	-2.5599401936839685	1.51808226301055	0.354750615754468	-2.529019459689721	1.7799237823112406	0.3281230570247996	-2.416968328619941	1.6548952123178515	0.3591892194320873	-2.589338433898074	1.4005916021847227	0.5425678142228912	-2.556456355759525	1.0930535813858844	0.6217290186672567	-2.484388893919448	0.8520919417482543	0.6101645906247241	-2.5712899480181797	1.3968031708564372	0.20143820919336003	-2.549448668440855	1.0951205317079815	0.14856195059030156	-2.484195317744124	0.8532310973336712	0.16351697814112254
